<svg id="icon-icons-search" viewBox="0 0 32 32">
  <path fill="#616161" style="fill: var(--color1, #616161)"
    d="M19.453 21.327l1.886-1.885 8.013 8.013-1.885 1.886z"></path>
  <path fill="#616161" style="fill: var(--color1, #616161)"
    d="M13.333 2.667c-5.891 0-10.667 4.776-10.667 10.667s4.776 10.667 10.667 10.667v0c5.891 0 10.667-4.776 10.667-10.667s-4.776-10.667-10.667-10.667v0z"></path>
  <path fill="#37474f" style="fill: var(--color2, #37474f)"
    d="M21.637 23.561l1.885-1.886 5.799 5.799-1.886 1.885z"></path>
  <path fill="#64b5f6" style="fill: var(--color3, #64b5f6)"
    d="M13.333 4.667c-4.786 0-8.667 3.88-8.667 8.667s3.88 8.667 8.667 8.667v0c4.786 0 8.667-3.88 8.667-8.667s-3.88-8.667-8.667-8.667v0z"></path>
  <path fill="#bbdefb" style="fill: var(--color4, #bbdefb)"
    d="M17.933 9.467c-1.133-1.333-2.8-2.133-4.6-2.133s-3.467 0.8-4.6 2.133c-0.267 0.267-0.2 0.733 0.067 0.933 0.267 0.267 0.733 0.2 0.933-0.067 0.933-1.067 2.2-1.667 3.6-1.667s2.667 0.6 3.6 1.667c0.133 0.133 0.333 0.267 0.533 0.267 0.133 0 0.333-0.067 0.4-0.133 0.267-0.267 0.267-0.733 0.067-1z"></path>
</svg>